<?xml version="1.0" standalone="no"?>
<!DOCTYPE svg PUBLIC "-//W3C//DTD SVG 20010904//EN"
 "http://www.w3.org/TR/2001/REC-SVG-20010904/DTD/svg10.dtd">
<svg version="1.0" xmlns="http://www.w3.org/2000/svg"
 width="260.000000pt" height="260.000000pt" viewBox="0 0 260.000000 260.000000"
 preserveAspectRatio="xMidYMid meet">
<metadata>
Created by potrace 1.14, written by Peter Selinger 2001-2017
</metadata>
<g transform="translate(0.000000,260.000000) scale(0.100000,-0.100000)"
fill="#000000" stroke="none">
<path d="M727 2269 c23 -78 14 -170 -24 -252 -18 -37 -31 -71 -31 -75 2 -6 40
-23 89 -38 11 -4 20 4 28 24 13 30 81 104 81 86 -1 -5 -7 -36 -15 -69 -20 -81
-19 -105 3 -105 22 0 82 -36 82 -50 0 -5 -7 -10 -15 -10 -9 0 -15 -6 -14 -12
1 -7 -1 -25 -6 -41 -5 -21 -2 -35 16 -62 13 -19 27 -35 30 -35 10 0 39 118 39
160 0 45 7 48 59 21 43 -23 97 -41 123 -41 15 0 18 5 13 23 -10 30 -45 67 -65
67 -9 0 -21 5 -28 12 -9 9 -12 9 -12 0 0 -7 -7 -12 -16 -12 -14 0 -16 10 -12
59 l4 59 -70 23 c-39 13 -75 27 -80 30 -11 10 59 29 104 29 35 0 36 1 46 54
l10 54 -66 7 c-111 10 -166 33 -230 92 l-58 53 15 -51z m222 -333 c50 -69 61
-90 50 -97 -20 -12 -39 -11 -39 2 0 7 -20 55 -46 108 -25 53 -41 92 -36 86 4
-5 37 -50 71 -99z"/>
<path d="M1840 2275 c-58 -59 -115 -84 -219 -97 l-86 -11 9 -53 c10 -53 11
-54 46 -54 45 0 115 -19 104 -29 -5 -3 -41 -17 -80 -30 l-70 -23 4 -59 c4 -49
2 -59 -12 -59 -9 0 -16 5 -16 12 0 9 -3 9 -12 0 -7 -7 -19 -12 -28 -12 -20 0
-55 -37 -65 -67 -5 -18 -2 -23 13 -23 26 0 80 18 123 41 52 27 59 24 59 -21 0
-42 29 -160 39 -160 3 0 17 16 30 35 18 27 21 41 16 62 -5 16 -7 34 -6 41 1 6
-5 12 -14 12 -8 0 -15 5 -15 10 0 14 60 50 83 50 21 0 22 24 2 105 -8 33 -14
64 -15 69 0 18 68 -56 81 -86 8 -20 17 -28 28 -24 49 15 87 32 89 38 0 4 -13
38 -31 75 -38 82 -47 174 -24 252 8 28 14 51 13 51 -1 0 -22 -20 -46 -45z
m-156 -329 c-24 -51 -44 -98 -44 -105 0 -13 -19 -14 -39 -2 -10 7 3 31 55 105
38 53 70 96 71 96 1 0 -18 -42 -43 -94z"/>
<path d="M1250 2289 c-25 -4 -57 -12 -71 -17 -30 -12 -99 -70 -99 -83 0 -5 17
-9 38 -9 20 -1 55 -8 77 -16 22 -9 49 -17 60 -18 11 -2 21 -10 23 -19 4 -22
40 -22 44 0 2 9 12 17 23 19 11 1 38 9 60 18 22 8 57 15 78 16 20 0 37 4 37 9
0 5 -18 25 -40 44 -56 48 -147 70 -230 56z"/>
<path d="M1226 2094 c-9 -20 -15 -38 -12 -41 2 -2 20 -3 39 -1 l35 3 -15 38
c-8 20 -18 37 -22 37 -4 0 -15 -16 -25 -36z"/>
<path d="M1327 2093 l-15 -38 35 -3 c19 -2 37 -1 39 1 6 6 -28 77 -37 77 -4 0
-14 -17 -22 -37z"/>
<path d="M1218 1997 l-57 -42 55 -11 c30 -6 57 -14 60 -16 3 -3 0 -27 -7 -52
-9 -35 -9 -50 0 -59 18 -18 13 -26 -21 -41 -28 -12 -30 -14 -10 -15 12 -1 22
-5 22 -11 0 -22 -41 -74 -68 -85 -25 -11 -30 -10 -41 7 -7 11 -15 17 -18 14
-3 -3 0 -13 8 -22 12 -15 12 -17 -1 -12 -8 2 -16 17 -18 31 -2 15 -7 25 -12
22 -5 -3 -26 9 -46 27 -32 28 -36 30 -25 9 7 -13 11 -37 9 -53 -3 -21 0 -32
14 -39 10 -5 18 -17 18 -26 0 -14 -2 -14 -16 3 -15 18 -15 18 -10 -7 8 -36
-23 -59 -80 -59 -42 0 -45 2 -39 21 l7 22 -31 -22 -31 -22 -9 24 c-6 15 -20
26 -38 30 -15 3 -37 9 -47 13 -15 6 -18 4 -13 -9 4 -11 2 -14 -9 -10 -25 9
-15 -12 24 -50 27 -26 41 -34 52 -27 22 14 29 3 24 -38 -4 -30 -3 -34 6 -19
17 26 28 21 48 -20 22 -48 18 -93 -9 -93 -24 0 -25 -17 -1 -23 13 -4 12 -5 -5
-6 -12 0 -25 4 -28 9 -3 6 -11 10 -17 10 -6 0 -8 -3 -5 -7 9 -9 -24 -32 -48
-33 -15 -1 -12 -5 13 -16 17 -8 32 -19 32 -24 0 -12 71 -2 80 10 3 4 30 9 60
11 44 3 55 1 55 -11 0 -11 -9 -14 -30 -12 -45 5 -136 -8 -130 -19 4 -5 14 -9
24 -9 38 0 29 -72 -16 -129 -2 -3 -10 4 -19 15 -14 18 -15 17 -10 -19 5 -36 4
-39 -18 -33 -17 4 -31 -4 -62 -36 -36 -37 -37 -40 -14 -35 22 5 23 5 8 -7 -10
-7 -15 -16 -12 -19 3 -3 -16 -15 -42 -26 -47 -21 -114 -80 -114 -101 0 -12 49
-13 69 -1 10 7 11 13 1 31 -17 31 -9 33 41 11 24 -10 54 -22 66 -26 l22 -6
-20 46 c-11 26 -18 52 -16 59 3 7 26 19 51 26 25 7 46 18 46 26 0 23 17 24 44
3 l27 -21 -7 26 c-6 25 -5 26 37 26 55 -1 90 -27 83 -61 -5 -23 -5 -23 10 -5
14 17 16 17 16 3 0 -9 -9 -22 -21 -30 -16 -12 -19 -19 -11 -34 7 -13 6 -28 -4
-52 l-14 -33 29 31 c16 17 36 31 45 31 9 0 16 8 16 19 0 10 7 25 17 32 15 13
15 12 4 -8 -13 -26 3 -33 17 -7 12 22 57 0 82 -41 25 -40 25 -45 0 -45 -11 0
-20 -4 -20 -10 0 -5 8 -10 18 -10 9 0 24 -5 32 -10 12 -7 12 -12 2 -22 -15
-15 -15 -32 -1 -80 14 -52 44 -52 58 0 14 48 14 65 -1 80 -10 10 -10 15 2 22
8 5 23 10 33 10 9 0 17 5 17 10 0 6 -9 10 -20 10 -25 0 -25 5 0 45 25 41 70
63 82 41 14 -26 30 -19 17 7 -11 20 -11 21 4 8 10 -7 17 -22 17 -32 0 -11 7
-19 16 -19 9 0 29 -14 45 -31 l29 -31 -14 33 c-10 24 -11 39 -4 52 8 15 5 22
-11 34 -12 8 -21 21 -21 30 0 14 2 14 16 -3 15 -18 15 -18 10 5 -7 34 28 60
83 61 42 0 43 -1 37 -26 l-7 -26 27 21 c27 21 44 20 44 -3 0 -8 21 -19 46 -26
25 -7 48 -19 51 -26 2 -7 -5 -33 -16 -59 l-20 -46 22 6 c12 4 42 16 66 26 50
22 58 20 41 -11 -10 -18 -9 -24 1 -31 20 -12 69 -11 69 1 0 21 -67 80 -114
101 -26 11 -45 23 -42 26 3 3 -2 12 -12 19 -15 12 -14 12 8 7 23 -5 22 -2 -14
35 -31 32 -45 40 -62 36 -22 -6 -23 -3 -18 33 5 36 4 37 -10 19 -9 -11 -17
-18 -19 -15 -45 57 -56 142 -17 132 10 -3 21 0 24 5 7 12 -82 26 -129 20 -21
-2 -30 1 -30 12 0 12 11 14 55 11 30 -2 57 -7 60 -11 9 -12 80 -22 80 -10 0 5
15 16 33 24 24 11 27 15 12 16 -24 1 -57 24 -48 33 3 4 1 7 -5 7 -6 0 -14 -4
-17 -10 -3 -5 -16 -9 -28 -9 -17 1 -18 2 -4 6 23 6 22 23 -2 23 -27 0 -31 45
-9 93 20 41 31 46 48 20 9 -15 10 -11 6 19 -5 41 2 52 24 38 11 -7 25 1 52 27
39 38 49 59 24 50 -11 -4 -13 -1 -9 10 5 13 2 15 -13 9 -10 -4 -32 -10 -47
-13 -18 -4 -32 -15 -38 -30 l-9 -24 -31 22 -31 22 7 -22 c6 -19 3 -21 -39 -21
-57 0 -88 23 -80 59 5 25 5 25 -10 7 -14 -17 -16 -17 -16 -3 0 9 8 21 18 26
14 7 17 18 14 39 -2 16 2 40 9 53 11 21 7 19 -25 -9 -20 -18 -41 -30 -46 -27
-5 3 -10 -7 -12 -22 -2 -14 -10 -29 -18 -31 -13 -5 -13 -3 -1 12 8 9 11 19 8
22 -3 3 -11 -3 -18 -14 -11 -17 -16 -18 -41 -7 -27 11 -68 63 -68 85 0 6 10
10 23 11 19 1 17 3 -10 15 -35 15 -40 23 -22 41 9 9 9 24 0 59 -7 25 -10 49
-7 52 3 2 30 10 61 16 l55 11 -55 40 c-31 22 -60 42 -65 43 -6 2 -9 -20 -8
-55 2 -46 0 -58 -12 -58 -12 0 -14 12 -12 58 1 31 -1 57 -5 57 -5 0 -34 -19
-65 -43z m98 -228 c10 -17 -13 -36 -27 -22 -12 12 -4 33 11 33 5 0 12 -5 16
-11z m-142 -179 c29 -45 32 -60 12 -60 -8 0 -22 20 -31 44 -10 25 -25 47 -34
49 -11 3 -10 5 5 6 14 1 30 -12 48 -39z m305 33 c-9 -2 -24 -24 -34 -49 -9
-24 -23 -44 -31 -44 -20 0 -17 15 12 60 18 27 34 40 48 39 15 -1 16 -3 5 -6z
m-345 -51 c14 -21 26 -43 26 -50 0 -16 -26 -15 -33 1 -3 6 -12 29 -21 50 -21
48 -6 48 28 -1z m360 1 c-9 -21 -18 -44 -21 -50 -7 -16 -33 -17 -33 -1 0 16
50 88 61 88 5 0 2 -17 -7 -37z m-576 -40 c-2 -10 -10 -18 -18 -18 -8 0 -16 8
-18 18 -2 12 3 17 18 17 15 0 20 -5 18 -17z m800 0 c-2 -10 -10 -18 -18 -18
-8 0 -16 8 -18 18 -2 12 3 17 18 17 15 0 20 -5 18 -17z m-670 -211 c3 -10 -10
-13 -57 -10 -62 3 -80 13 -38 21 40 8 90 2 95 -11z m591 12 c48 -10 37 -19
-29 -22 -55 -3 -71 4 -53 21 8 9 41 9 82 1z m-476 -258 c-4 -6 -17 -25 -31
-43 -13 -18 -21 -37 -17 -42 3 -7 0 -8 -9 -5 -20 8 -21 6 9 64 18 35 29 48 40
44 8 -4 12 -11 8 -18z m322 -26 c30 -58 29 -56 9 -64 -9 -3 -12 -2 -9 4 4 6
-7 29 -24 52 -23 31 -28 44 -18 50 6 4 13 8 14 8 2 0 14 -22 28 -50z m-565 20
c0 -21 -24 -28 -35 -10 -8 14 3 30 21 30 8 0 14 -9 14 -20z m795 0 c0 -8 -8
-16 -17 -18 -13 -2 -18 3 -18 18 0 15 5 20 18 18 9 -2 17 -10 17 -18z m-515
-11 c0 -6 -12 -27 -27 -47 -15 -20 -28 -39 -30 -41 -2 -2 -5 -2 -8 1 -5 5 28
88 41 101 8 8 24 -1 24 -14z m250 -36 c11 -25 18 -48 15 -51 -3 -3 -6 -3 -8
-1 -2 2 -15 21 -31 42 -15 21 -25 45 -22 53 9 22 23 9 46 -43z m-134 -174 c10
-17 -13 -36 -27 -22 -12 12 -4 33 11 33 5 0 12 -5 16 -11z"/>
<path d="M605 1931 c-139 -34 -240 -217 -194 -350 6 -17 14 -31 17 -31 4 0 19
21 34 46 15 24 41 52 58 62 16 9 30 23 30 31 0 10 8 12 29 8 39 -8 45 2 19 31
-16 17 -19 26 -10 29 6 3 12 19 12 36 0 18 11 56 25 85 33 71 35 66 -20 53z
m-11 -216 c11 -8 16 -15 10 -15 -5 0 -18 7 -28 15 -11 8 -16 15 -10 15 5 0 18
-7 28 -15z"/>
<path d="M1122 1927 c-6 -7 -7 -18 -3 -26 7 -11 11 -9 20 7 6 11 11 23 11 26
0 11 -17 6 -28 -7z"/>
<path d="M1450 1934 c0 -3 5 -15 11 -26 9 -16 13 -18 20 -7 4 8 3 19 -3 26
-11 13 -28 18 -28 7z"/>
<path d="M1950 1936 c0 -2 11 -28 25 -58 14 -29 25 -67 25 -85 0 -17 6 -33 13
-36 8 -3 5 -12 -11 -29 -26 -29 -20 -39 19 -31 21 4 29 2 29 -8 0 -8 14 -22
30 -31 17 -10 43 -38 58 -62 15 -25 30 -46 34 -46 11 0 28 62 28 106 0 93 -71
214 -149 253 -34 17 -101 35 -101 27z m74 -221 c-10 -8 -23 -15 -28 -15 -6 0
-1 7 10 15 10 8 23 15 28 15 6 0 1 -7 -10 -15z"/>
<path d="M1135 1880 c-3 -5 -1 -10 4 -10 6 0 11 5 11 10 0 6 -2 10 -4 10 -3 0
-8 -4 -11 -10z"/>
<path d="M1450 1880 c0 -5 5 -10 11 -10 5 0 7 5 4 10 -3 6 -8 10 -11 10 -2 0
-4 -4 -4 -10z"/>
<path d="M831 1761 c-10 -7 -8 -11 10 -16 13 -4 27 -13 31 -19 4 -6 10 -8 13
-4 8 8 -17 48 -30 48 -5 0 -16 -4 -24 -9z"/>
<path d="M1090 1750 c6 -11 12 -20 14 -20 2 0 2 9 -1 20 -3 11 -9 20 -15 20
-5 0 -4 -9 2 -20z"/>
<path d="M1497 1750 c-3 -11 -3 -20 -1 -20 2 0 8 9 14 20 6 11 7 20 2 20 -6 0
-12 -9 -15 -20z"/>
<path d="M1722 1749 c-7 -12 -11 -24 -7 -27 3 -4 9 -2 13 4 4 6 18 15 31 19
18 5 20 9 10 16 -22 14 -33 11 -47 -12z"/>
<path d="M610 1751 c0 -6 11 -22 24 -37 l23 -28 17 31 c9 18 16 34 16 38 0 3
-18 5 -40 5 -22 0 -40 -4 -40 -9z"/>
<path d="M1910 1755 c0 -4 7 -20 16 -38 l17 -31 23 28 c33 38 30 46 -16 46
-22 0 -40 -2 -40 -5z"/>
<path d="M733 1720 c-35 -16 -63 -33 -63 -38 0 -9 89 -47 94 -41 10 15 43 109
38 108 -4 0 -35 -13 -69 -29z"/>
<path d="M1181 1741 c-12 -8 -13 -12 -1 -26 10 -13 15 -13 21 -3 20 30 8 46
-20 29z"/>
<path d="M1390 1738 c0 -7 4 -19 9 -26 6 -10 11 -10 21 3 12 14 11 18 -1 26
-20 12 -29 11 -29 -3z"/>
<path d="M1812 1698 c11 -29 21 -55 23 -57 7 -6 95 32 95 41 0 7 -121 68 -135
68 -2 0 6 -24 17 -52z"/>
<path d="M1000 1712 c0 -12 19 -26 26 -19 2 2 -2 10 -11 17 -9 8 -15 8 -15 2z"/>
<path d="M1580 1705 c-8 -9 -8 -15 -2 -15 12 0 26 19 19 26 -2 2 -10 -2 -17
-11z"/>
<path d="M567 1673 c-5 -8 30 -73 39 -73 5 0 36 61 32 65 -10 9 -67 15 -71 8z"/>
<path d="M1983 1673 c-13 -2 -23 -7 -23 -9 0 -8 30 -64 34 -64 2 0 13 14 24
32 29 45 22 52 -35 41z"/>
<path d="M654 1598 c4 -35 8 -69 9 -75 0 -7 3 -13 6 -13 8 1 74 91 69 94 -1 1
-19 15 -39 29 -20 15 -39 27 -44 27 -4 0 -5 -28 -1 -62z"/>
<path d="M1915 1644 c-11 -9 -28 -22 -38 -29 -18 -13 -17 -15 15 -59 35 -47
44 -54 45 -33 1 6 5 40 9 75 7 65 3 72 -31 46z"/>
<path d="M971 1616 c-10 -11 -8 -16 9 -21 26 -8 33 -3 24 19 -8 20 -18 20 -33
2z"/>
<path d="M1596 1614 c-9 -22 -2 -27 24 -19 17 5 19 10 9 21 -15 18 -25 18 -33
-2z"/>
<path d="M386 1470 c-56 -87 -113 -129 -207 -154 l-53 -13 71 -21 c82 -25 143
-74 194 -154 18 -29 34 -55 35 -57 2 -1 22 13 47 34 l44 36 -24 46 c-13 26
-23 55 -23 65 0 11 -4 27 -10 37 -8 17 -1 19 90 25 54 3 105 9 114 12 12 5 16
0 16 -21 l0 -27 -67 7 c-38 3 -85 8 -105 11 -22 3 -38 2 -38 -4 0 -9 34 -41
102 -98 l25 -21 22 23 c12 12 35 27 52 33 26 9 30 8 27 -7 -1 -9 2 -19 7 -21
6 -2 16 -12 22 -21 16 -23 51 -31 87 -22 l28 8 -38 46 c-22 25 -48 49 -59 52
-11 3 -29 12 -40 21 -20 15 -20 15 10 40 17 14 33 25 37 25 4 0 25 19 47 42
27 29 36 45 28 50 -22 14 -64 8 -90 -12 -14 -11 -30 -20 -35 -20 -6 0 -8 -9
-5 -20 3 -13 0 -20 -8 -20 -20 0 -79 38 -79 50 0 19 -17 10 -77 -45 -34 -30
-64 -55 -67 -55 -8 0 21 89 39 116 9 14 15 27 13 27 -2 1 -22 17 -45 35 -23
17 -43 32 -45 32 -2 0 -20 -27 -42 -60z"/>
<path d="M2138 1505 c-16 -13 -35 -28 -44 -33 -15 -8 -15 -11 1 -35 18 -28 48
-117 39 -117 -3 0 -33 25 -67 55 -60 55 -77 64 -77 45 0 -12 -59 -50 -79 -50
-8 0 -11 7 -8 20 3 11 1 20 -5 20 -5 0 -21 9 -35 20 -26 20 -68 26 -90 12 -8
-5 1 -21 28 -50 22 -23 43 -42 47 -42 4 0 21 -11 37 -25 30 -25 30 -25 10 -40
-11 -9 -29 -18 -40 -21 -11 -3 -37 -27 -59 -52 l-38 -46 28 -8 c36 -9 71 -1
87 22 6 9 17 19 22 20 6 2 9 11 7 21 -3 16 0 17 27 8 17 -6 40 -21 52 -33 l22
-23 25 21 c68 57 102 89 102 98 0 6 -16 7 -37 4 -21 -3 -68 -8 -105 -11 l-68
-7 0 27 c0 21 4 26 16 21 9 -3 60 -9 114 -12 91 -6 98 -8 90 -25 -6 -10 -10
-26 -10 -37 0 -10 -10 -39 -23 -65 l-24 -46 44 -36 c25 -21 45 -35 47 -34 1 2
17 28 35 57 51 80 112 129 194 154 l71 21 -53 13 c-94 25 -151 67 -207 154
-22 33 -41 60 -44 60 -3 -1 -17 -12 -32 -25z"/>
<path d="M670 1466 c0 -16 5 -26 15 -26 8 0 15 6 15 14 0 7 -7 19 -15 26 -13
11 -15 8 -15 -14z"/>
<path d="M1912 1478 c-17 -17 -15 -38 3 -38 9 0 15 9 15 25 0 29 -1 30 -18 13z"/>
<path d="M715 1450 c3 -5 8 -10 11 -10 2 0 4 5 4 10 0 6 -5 10 -11 10 -5 0 -7
-4 -4 -10z"/>
<path d="M1870 1449 c0 -5 5 -7 10 -4 6 3 10 8 10 11 0 2 -4 4 -10 4 -5 0 -10
-5 -10 -11z"/>
<path d="M860 1427 c0 -28 6 -32 28 -19 9 7 8 13 -8 27 -20 18 -20 18 -20 -8z"/>
<path d="M1717 1432 c-17 -18 -17 -20 -1 -26 22 -8 26 -3 22 24 -3 22 -3 22
-21 2z"/>
<path d="M790 1350 c0 -5 9 -10 21 -10 11 0 17 5 14 10 -3 6 -13 10 -21 10 -8
0 -14 -4 -14 -10z"/>
<path d="M1775 1350 c-3 -5 3 -10 14 -10 12 0 21 5 21 10 0 6 -6 10 -14 10 -8
0 -18 -4 -21 -10z"/>
<path d="M790 1250 c0 -13 11 -13 30 0 12 8 11 10 -7 10 -13 0 -23 -4 -23 -10z"/>
<path d="M1780 1250 c19 -13 30 -13 30 0 0 6 -10 10 -22 10 -19 0 -20 -2 -8
-10z"/>
<path d="M860 1173 c0 -25 0 -26 20 -8 11 10 20 22 20 27 0 4 -9 8 -20 8 -15
0 -20 -7 -20 -27z"/>
<path d="M1700 1192 c0 -5 9 -17 20 -27 20 -18 20 -17 20 8 0 20 -5 27 -20 27
-11 0 -20 -4 -20 -8z"/>
<path d="M670 1133 c1 -27 1 -27 16 -8 8 11 19 20 24 20 4 0 12 3 16 8 4 4 -7
7 -24 7 -28 0 -32 -3 -32 -27z"/>
<path d="M1874 1153 c4 -5 12 -8 16 -8 5 0 16 -9 24 -20 15 -19 15 -19 16 8 0
24 -4 27 -32 27 -17 0 -28 -3 -24 -7z"/>
<path d="M667 1094 c-3 -5 -9 -42 -13 -83 -8 -82 -6 -83 61 -27 l30 24 -26 29
c-15 15 -31 36 -36 47 -6 10 -13 15 -16 10z"/>
<path d="M1920 1092 c0 -6 -14 -28 -32 -48 l-32 -36 29 -25 c67 -54 69 -54 61
28 -4 41 -12 78 -17 84 -6 5 -9 5 -9 -3z"/>
<path d="M410 1020 c-17 -41 -8 -135 18 -190 40 -83 135 -160 197 -160 14 0
25 1 25 3 0 1 -11 24 -25 51 -14 27 -25 64 -25 82 0 18 -5 36 -11 39 -7 5 -2
16 12 31 26 28 19 31 -16 8 -14 -9 -25 -14 -25 -11 0 3 15 15 33 27 17 12 23
19 12 15 -48 -17 -55 -17 -55 -1 0 8 -13 22 -29 30 -16 9 -42 36 -57 61 -16
25 -32 45 -35 45 -4 0 -12 -13 -19 -30z"/>
<path d="M2136 1005 c-15 -25 -41 -52 -57 -61 -16 -8 -29 -22 -29 -30 0 -16
-7 -16 -55 1 -11 4 -5 -3 13 -15 17 -12 32 -24 32 -27 0 -3 -11 2 -25 11 -35
23 -42 20 -16 -8 14 -15 19 -26 12 -31 -6 -3 -11 -21 -11 -39 0 -18 -11 -55
-25 -82 -14 -27 -25 -50 -25 -51 0 -10 58 1 89 16 86 44 151 143 159 244 4 52
-11 117 -27 117 -3 0 -19 -20 -35 -45z"/>
<path d="M960 1002 c0 -10 21 -32 31 -32 4 0 9 9 12 20 4 16 0 20 -19 20 -13
0 -24 -4 -24 -8z"/>
<path d="M1597 990 c6 -23 14 -25 31 -8 18 18 14 28 -12 28 -19 0 -23 -4 -19
-20z"/>
<path d="M582 972 c-12 -16 -22 -33 -22 -36 0 -3 18 -6 40 -6 45 0 50 12 21
49 l-18 23 -21 -30z"/>
<path d="M1977 977 c-25 -39 -21 -47 23 -47 46 0 48 5 17 44 l-23 28 -17 -25z"/>
<path d="M920 938 c-23 -38 -18 -95 9 -115 14 -11 14 -13 -4 -27 -11 -9 -35
-21 -52 -28 -23 -8 -33 -18 -33 -33 0 -19 15 -91 26 -128 11 -35 -36 1 -68 53
l-29 47 -39 -18 c-22 -11 -46 -19 -54 -19 -11 0 -6 -18 22 -77 44 -94 54 -183
28 -259 -9 -26 -16 -49 -16 -51 0 -2 16 15 36 37 55 61 145 101 244 107 69 5
80 8 74 22 -3 9 -8 34 -11 57 l-5 40 -47 1 c-25 1 -59 6 -76 13 l-30 12 55 18
c106 34 105 33 102 100 -4 58 3 71 24 50 20 -20 82 16 103 60 l19 40 -26 -6
c-15 -3 -40 -10 -56 -15 -15 -5 -32 -6 -37 -3 -5 3 -9 1 -9 -4 0 -7 -62 -42
-74 -42 -2 0 -6 28 -9 63 -7 74 -24 137 -38 137 -5 0 -18 -15 -29 -32z m88
-184 c2 -1 -20 -33 -48 -70 -29 -38 -58 -81 -66 -96 -8 -16 -16 -28 -19 -28
-2 0 15 39 37 88 22 48 44 98 49 111 8 20 12 21 27 10 9 -7 18 -14 20 -15z"/>
<path d="M1630 933 c-6 -21 -14 -66 -17 -100 -3 -35 -7 -63 -9 -63 -12 0 -74
35 -74 42 0 5 -4 7 -9 4 -5 -3 -22 -2 -37 3 -16 5 -41 12 -56 15 l-26 6 19
-40 c21 -44 83 -80 103 -60 21 21 28 8 24 -50 -3 -67 -4 -66 102 -100 l55 -18
-30 -12 c-16 -7 -51 -12 -76 -13 l-47 -1 -5 -40 c-3 -23 -8 -48 -11 -57 -6
-14 5 -17 74 -22 99 -6 189 -46 244 -107 20 -22 36 -39 36 -37 0 2 -7 25 -16
51 -26 76 -16 165 28 259 28 59 33 77 22 77 -8 0 -32 8 -54 19 l-39 18 -29
-47 c-32 -52 -79 -88 -68 -53 11 37 26 109 26 128 0 15 -10 25 -32 33 -18 7
-42 19 -53 28 -18 14 -18 16 -4 27 27 20 32 77 9 115 -26 42 -37 40 -50 -5z
m50 -267 c27 -58 47 -106 44 -106 -2 0 -10 12 -18 28 -8 15 -37 58 -66 96 -47
63 -50 69 -33 81 10 7 20 12 22 10 1 -2 25 -51 51 -109z"/>
<path d="M1010 905 c-7 -9 -10 -18 -7 -21 3 -3 10 4 17 15 13 25 8 27 -10 6z"/>
<path d="M1580 902 c6 -13 14 -21 18 -18 3 4 -2 14 -12 24 -18 16 -18 16 -6
-6z"/>
<path d="M1176 884 c-8 -21 -8 -21 14 -27 11 -3 20 -1 20 3 0 16 -12 40 -20
40 -4 0 -11 -7 -14 -16z"/>
<path d="M1396 884 c-10 -26 -7 -32 14 -27 11 3 20 7 20 8 0 12 -14 35 -20 35
-4 0 -11 -7 -14 -16z"/>
<path d="M1086 854 c-8 -21 -8 -24 3 -24 5 0 11 9 14 20 6 24 -8 27 -17 4z"/>
<path d="M1497 850 c3 -11 9 -20 14 -20 11 0 11 3 3 24 -9 23 -23 20 -17 -4z"/>
<path d="M830 845 c7 -8 18 -15 25 -15 7 0 15 7 19 15 4 11 -2 15 -26 15 -26
0 -29 -2 -18 -15z"/>
<path d="M1726 845 c4 -8 12 -15 19 -15 7 0 18 7 25 15 11 13 8 15 -18 15 -24
0 -30 -4 -26 -15z"/>
<path d="M1133 728 c3 -9 0 -19 -9 -22 -20 -8 -18 -23 5 -36 18 -9 20 -7 18
24 -2 19 -7 39 -11 43 -5 4 -7 1 -3 -9z"/>
<path d="M1459 738 c-1 -2 -3 -20 -4 -41 -4 -34 -2 -36 16 -27 23 13 25 28 5
36 -8 3 -12 12 -9 20 4 11 -4 22 -8 12z"/>
<path d="M1200 661 l-45 -6 62 -46 c34 -26 59 -49 56 -53 -4 -3 -19 -6 -35 -6
l-28 0 17 -35 c20 -42 30 -44 44 -7 18 44 20 65 13 115 -4 35 -10 47 -22 45
-10 0 -37 -4 -62 -7z"/>
<path d="M1316 622 c-7 -49 -5 -70 13 -114 14 -37 24 -35 44 7 l17 35 -28 0
c-47 0 -44 10 19 57 34 24 59 46 57 47 -1 2 -28 6 -60 10 l-56 6 -6 -48z"/>
<path d="M1283 480 c-3 -13 -12 -20 -23 -18 -9 2 -25 -4 -35 -12 -9 -8 -45
-16 -81 -18 -35 -2 -64 -9 -64 -14 0 -6 16 -26 35 -44 63 -59 180 -79 283 -49
49 15 122 70 122 93 0 5 -29 12 -64 14 -36 2 -72 10 -81 18 -10 8 -26 14 -35
12 -11 -2 -20 5 -23 18 -7 26 -27 26 -34 0z"/>
</g>
</svg>
